<mxfile host="app.diagrams.net" modified="2023-09-19T03:27:07.393Z" agent="Mozilla/5.0 (Windows NT 10.0; Win64; x64) AppleWebKit/537.36 (KHTML, like Gecko) Chrome/116.0.0.0 Safari/537.36" etag="57KqSmdwZZA13vSvH4Co" version="21.7.5" type="github">
  <diagram name="第 1 页" id="sQ-H0kEgwsu4YD0WwHfz">
    <mxGraphModel dx="2074" dy="1118" grid="0" gridSize="10" guides="1" tooltips="1" connect="1" arrows="1" fold="1" page="1" pageScale="1" pageWidth="827" pageHeight="1169" math="0" shadow="0">
      <root>
        <mxCell id="0" />
        <mxCell id="1" parent="0" />
        <mxCell id="r4dZPFtzFLAKczWpg_6l-1" value="" style="rounded=0;whiteSpace=wrap;html=1;" vertex="1" parent="1">
          <mxGeometry x="215" y="11" width="350" height="300" as="geometry" />
        </mxCell>
        <mxCell id="r4dZPFtzFLAKczWpg_6l-2" value="&lt;span style=&quot;font-size: 16px;&quot;&gt;&lt;font style=&quot;font-size: 16px;&quot;&gt;MCU微控制器&lt;/font&gt;&lt;/span&gt;" style="rounded=0;whiteSpace=wrap;html=1;fontStyle=1;fontSize=16;" vertex="1" parent="1">
          <mxGeometry x="255" y="151" width="270" height="50" as="geometry" />
        </mxCell>
        <mxCell id="r4dZPFtzFLAKczWpg_6l-3" value="工作环境&lt;br style=&quot;font-size: 16px;&quot;&gt;检测模块" style="rounded=0;whiteSpace=wrap;html=1;fontStyle=1;fontSize=16;" vertex="1" parent="1">
          <mxGeometry x="225" y="236" width="70" height="60" as="geometry" />
        </mxCell>
        <mxCell id="r4dZPFtzFLAKczWpg_6l-4" value="传感器状态&lt;br style=&quot;font-size: 16px;&quot;&gt;实时检测模块" style="rounded=0;whiteSpace=wrap;html=1;fontStyle=1;fontSize=16;" vertex="1" parent="1">
          <mxGeometry x="455" y="236" width="100" height="60" as="geometry" />
        </mxCell>
        <mxCell id="r4dZPFtzFLAKczWpg_6l-5" value="上位机指令&lt;br style=&quot;font-size: 16px;&quot;&gt;执行模块" style="rounded=0;whiteSpace=wrap;html=1;fontStyle=1;fontSize=16;" vertex="1" parent="1">
          <mxGeometry x="319" y="236" width="120" height="60" as="geometry" />
        </mxCell>
        <mxCell id="r4dZPFtzFLAKczWpg_6l-6" value="上位机" style="rounded=0;whiteSpace=wrap;html=1;fontStyle=1;fontSize=16;" vertex="1" parent="1">
          <mxGeometry x="330" y="31" width="120" height="60" as="geometry" />
        </mxCell>
        <mxCell id="r4dZPFtzFLAKczWpg_6l-7" value="" style="endArrow=classic;startArrow=classic;html=1;rounded=0;exitX=0.5;exitY=1;exitDx=0;exitDy=0;" edge="1" parent="1" source="r4dZPFtzFLAKczWpg_6l-6" target="r4dZPFtzFLAKczWpg_6l-2">
          <mxGeometry width="50" height="50" relative="1" as="geometry">
            <mxPoint x="415" y="351" as="sourcePoint" />
            <mxPoint x="465" y="301" as="targetPoint" />
          </mxGeometry>
        </mxCell>
        <mxCell id="r4dZPFtzFLAKczWpg_6l-8" value="" style="endArrow=none;html=1;rounded=0;exitX=0.5;exitY=1;exitDx=0;exitDy=0;entryX=0.5;entryY=0;entryDx=0;entryDy=0;" edge="1" parent="1" source="r4dZPFtzFLAKczWpg_6l-2" target="r4dZPFtzFLAKczWpg_6l-3">
          <mxGeometry width="50" height="50" relative="1" as="geometry">
            <mxPoint x="415" y="351" as="sourcePoint" />
            <mxPoint x="465" y="301" as="targetPoint" />
          </mxGeometry>
        </mxCell>
        <mxCell id="r4dZPFtzFLAKczWpg_6l-9" value="" style="endArrow=none;html=1;rounded=0;" edge="1" parent="1" target="r4dZPFtzFLAKczWpg_6l-5">
          <mxGeometry width="50" height="50" relative="1" as="geometry">
            <mxPoint x="385" y="201" as="sourcePoint" />
            <mxPoint x="465" y="301" as="targetPoint" />
          </mxGeometry>
        </mxCell>
        <mxCell id="r4dZPFtzFLAKczWpg_6l-10" value="" style="endArrow=none;html=1;rounded=0;exitX=0.5;exitY=0;exitDx=0;exitDy=0;" edge="1" parent="1" source="r4dZPFtzFLAKczWpg_6l-4">
          <mxGeometry width="50" height="50" relative="1" as="geometry">
            <mxPoint x="415" y="351" as="sourcePoint" />
            <mxPoint x="385" y="201" as="targetPoint" />
          </mxGeometry>
        </mxCell>
        <mxCell id="r4dZPFtzFLAKczWpg_6l-11" value="CAN协议" style="text;html=1;strokeColor=none;fillColor=none;align=center;verticalAlign=middle;whiteSpace=wrap;rounded=0;fontStyle=1;fontSize=13;" vertex="1" parent="1">
          <mxGeometry x="391" y="102" width="60" height="30" as="geometry" />
        </mxCell>
        <mxCell id="r4dZPFtzFLAKczWpg_6l-13" value="开始" style="strokeWidth=2;html=1;shape=mxgraph.flowchart.terminator;whiteSpace=wrap;" vertex="1" parent="1">
          <mxGeometry x="342" y="349" width="74" height="29" as="geometry" />
        </mxCell>
        <mxCell id="r4dZPFtzFLAKczWpg_6l-14" value="程序及外设初始化" style="rounded=1;whiteSpace=wrap;html=1;absoluteArcSize=1;arcSize=14;strokeWidth=2;" vertex="1" parent="1">
          <mxGeometry x="320.5" y="404" width="117" height="37" as="geometry" />
        </mxCell>
        <mxCell id="r4dZPFtzFLAKczWpg_6l-15" value="定时信息上报&lt;br&gt;时间到" style="strokeWidth=2;html=1;shape=mxgraph.flowchart.decision;whiteSpace=wrap;" vertex="1" parent="1">
          <mxGeometry x="293" y="465" width="170" height="67" as="geometry" />
        </mxCell>
        <mxCell id="r4dZPFtzFLAKczWpg_6l-16" value="" style="endArrow=classic;html=1;rounded=0;" edge="1" parent="1" source="r4dZPFtzFLAKczWpg_6l-13" target="r4dZPFtzFLAKczWpg_6l-14">
          <mxGeometry width="50" height="50" relative="1" as="geometry">
            <mxPoint x="387" y="791" as="sourcePoint" />
            <mxPoint x="437" y="741" as="targetPoint" />
          </mxGeometry>
        </mxCell>
        <mxCell id="r4dZPFtzFLAKczWpg_6l-17" value="" style="endArrow=classic;html=1;rounded=0;exitX=0.5;exitY=1;exitDx=0;exitDy=0;" edge="1" parent="1" source="r4dZPFtzFLAKczWpg_6l-14" target="r4dZPFtzFLAKczWpg_6l-15">
          <mxGeometry width="50" height="50" relative="1" as="geometry">
            <mxPoint x="387" y="791" as="sourcePoint" />
            <mxPoint x="437" y="741" as="targetPoint" />
          </mxGeometry>
        </mxCell>
        <mxCell id="r4dZPFtzFLAKczWpg_6l-18" value="各种数据采集" style="rounded=1;whiteSpace=wrap;html=1;absoluteArcSize=1;arcSize=14;strokeWidth=2;" vertex="1" parent="1">
          <mxGeometry x="472" y="546" width="117" height="37" as="geometry" />
        </mxCell>
        <mxCell id="r4dZPFtzFLAKczWpg_6l-19" value="接收到上位机&lt;br&gt;指令" style="strokeWidth=2;html=1;shape=mxgraph.flowchart.decision;whiteSpace=wrap;" vertex="1" parent="1">
          <mxGeometry x="294" y="695" width="170" height="67" as="geometry" />
        </mxCell>
        <mxCell id="r4dZPFtzFLAKczWpg_6l-20" value="" style="endArrow=classic;html=1;rounded=0;exitX=0.5;exitY=1;exitDx=0;exitDy=0;exitPerimeter=0;entryX=0.5;entryY=0;entryDx=0;entryDy=0;entryPerimeter=0;" edge="1" parent="1" source="r4dZPFtzFLAKczWpg_6l-15" target="r4dZPFtzFLAKczWpg_6l-19">
          <mxGeometry width="50" height="50" relative="1" as="geometry">
            <mxPoint x="387" y="791" as="sourcePoint" />
            <mxPoint x="437" y="741" as="targetPoint" />
          </mxGeometry>
        </mxCell>
        <mxCell id="r4dZPFtzFLAKczWpg_6l-22" value="否" style="text;html=1;align=center;verticalAlign=middle;resizable=0;points=[];autosize=1;strokeColor=none;fillColor=none;" vertex="1" parent="1">
          <mxGeometry x="260" y="706" width="30" height="26" as="geometry" />
        </mxCell>
        <mxCell id="r4dZPFtzFLAKczWpg_6l-23" value="否" style="text;html=1;align=center;verticalAlign=middle;resizable=0;points=[];autosize=1;strokeColor=none;fillColor=none;" vertex="1" parent="1">
          <mxGeometry x="353" y="533" width="30" height="26" as="geometry" />
        </mxCell>
        <mxCell id="r4dZPFtzFLAKczWpg_6l-25" value="指令处理及反馈" style="rounded=1;whiteSpace=wrap;html=1;absoluteArcSize=1;arcSize=14;strokeWidth=2;" vertex="1" parent="1">
          <mxGeometry x="319.5" y="803" width="117" height="37" as="geometry" />
        </mxCell>
        <mxCell id="r4dZPFtzFLAKczWpg_6l-26" value="" style="endArrow=classic;html=1;rounded=0;exitX=0.5;exitY=1;exitDx=0;exitDy=0;exitPerimeter=0;" edge="1" parent="1" source="r4dZPFtzFLAKczWpg_6l-19" target="r4dZPFtzFLAKczWpg_6l-25">
          <mxGeometry width="50" height="50" relative="1" as="geometry">
            <mxPoint x="387" y="814" as="sourcePoint" />
            <mxPoint x="437" y="764" as="targetPoint" />
          </mxGeometry>
        </mxCell>
        <mxCell id="r4dZPFtzFLAKczWpg_6l-27" value="是" style="text;html=1;align=center;verticalAlign=middle;resizable=0;points=[];autosize=1;strokeColor=none;fillColor=none;" vertex="1" parent="1">
          <mxGeometry x="377" y="763" width="30" height="26" as="geometry" />
        </mxCell>
        <mxCell id="r4dZPFtzFLAKczWpg_6l-28" value="" style="endArrow=classic;html=1;rounded=0;exitX=0.5;exitY=1;exitDx=0;exitDy=0;" edge="1" parent="1" source="r4dZPFtzFLAKczWpg_6l-25">
          <mxGeometry width="50" height="50" relative="1" as="geometry">
            <mxPoint x="387" y="791" as="sourcePoint" />
            <mxPoint x="381" y="455" as="targetPoint" />
            <Array as="points">
              <mxPoint x="378" y="856" />
              <mxPoint x="234" y="856" />
              <mxPoint x="234" y="453" />
            </Array>
          </mxGeometry>
        </mxCell>
        <mxCell id="r4dZPFtzFLAKczWpg_6l-29" value="" style="endArrow=classic;html=1;rounded=0;exitX=0;exitY=0.5;exitDx=0;exitDy=0;exitPerimeter=0;" edge="1" parent="1" source="r4dZPFtzFLAKczWpg_6l-19">
          <mxGeometry width="50" height="50" relative="1" as="geometry">
            <mxPoint x="387" y="814" as="sourcePoint" />
            <mxPoint x="233" y="729" as="targetPoint" />
          </mxGeometry>
        </mxCell>
        <mxCell id="r4dZPFtzFLAKczWpg_6l-30" value="数据上报" style="rounded=1;whiteSpace=wrap;html=1;absoluteArcSize=1;arcSize=14;strokeWidth=2;" vertex="1" parent="1">
          <mxGeometry x="472" y="604" width="117" height="37" as="geometry" />
        </mxCell>
        <mxCell id="r4dZPFtzFLAKczWpg_6l-31" value="" style="endArrow=classic;html=1;rounded=0;exitX=1;exitY=0.5;exitDx=0;exitDy=0;exitPerimeter=0;entryX=0.5;entryY=0;entryDx=0;entryDy=0;" edge="1" parent="1" source="r4dZPFtzFLAKczWpg_6l-15" target="r4dZPFtzFLAKczWpg_6l-18">
          <mxGeometry width="50" height="50" relative="1" as="geometry">
            <mxPoint x="387" y="791" as="sourcePoint" />
            <mxPoint x="437" y="741" as="targetPoint" />
            <Array as="points">
              <mxPoint x="531" y="499" />
            </Array>
          </mxGeometry>
        </mxCell>
        <mxCell id="r4dZPFtzFLAKczWpg_6l-32" value="是" style="text;html=1;align=center;verticalAlign=middle;resizable=0;points=[];autosize=1;strokeColor=none;fillColor=none;" vertex="1" parent="1">
          <mxGeometry x="475" y="472" width="30" height="26" as="geometry" />
        </mxCell>
        <mxCell id="r4dZPFtzFLAKczWpg_6l-33" value="" style="endArrow=classic;html=1;rounded=0;exitX=0.5;exitY=1;exitDx=0;exitDy=0;" edge="1" parent="1" source="r4dZPFtzFLAKczWpg_6l-30">
          <mxGeometry width="50" height="50" relative="1" as="geometry">
            <mxPoint x="387" y="791" as="sourcePoint" />
            <mxPoint x="379" y="679" as="targetPoint" />
            <Array as="points">
              <mxPoint x="531" y="682" />
            </Array>
          </mxGeometry>
        </mxCell>
      </root>
    </mxGraphModel>
  </diagram>
</mxfile>
